# xmcd
#
# Track frame offsets:
#	150
#	16540
#	32507
#	54082
#	75152
#	92312
#	109762
#	126505
#	145262
#	160690
#	181425
#	195995
#	213520
#
# Disc length: 3153 seconds
#
# Revision: 2
# Processed by: cddbd v1.5.2PL0 Copyright (c) Steve Scherf et al.
# Submitted via: EasyCDDAExtractor 15.3.0.1
#
DISCID=920c4f0d
DTITLE=Celine Dion - Miracle
DYEAR=2004
DGENRE=Pop
TTITLE0=Miracle
TTITLE1=Brahms' Lullaby
TTITLE2=If I Could
TTITLE3=Sleep Tight
TTITLE4=What A Wonderful World
TTITLE5=My Precious One
TTITLE6=A Mother's Prayer
TTITLE7=The First Time Ever I Saw Your Face
TTITLE8=Baby Close Your Eyes
TTITLE9=Come To Me
TTITLE10=Le Loup, La Biche Et Le Chevalier (Une Chanson Douce)
TTITLE11=Beautiful Boy
TTITLE12=In Some Small Way
EXTD=
EXTT0=
EXTT1=
EXTT2=
EXTT3=
EXTT4=
EXTT5=
EXTT6=
EXTT7=
EXTT8=
EXTT9=
EXTT10=
EXTT11=
EXTT12=
PLAYORDER=
